####
#
# OBJ File Generated by Meshlab
#
####
# Object Building_Drug Store test.obj
#
# Vertices: 80
# Faces: 118
#
####
mtllib ./Building_Drug Store test.obj.mtl

vn -0.5773504 0.5773502 0.5773502
v -5.6033912 6.4989777 4.2065086
vn -0.5773497 0.5773515 -0.5773497
v -5.6033912 6.4989777 4.0583043
vn -0.5773504 -0.5773502 -0.5773502
v -5.6033912 4.9957509 4.0583043
vn -0.5773497 -0.5773515 0.5773497
v -5.6033912 4.9957509 4.2065086
vn 0.5773504 0.5773502 -0.5773502
v 5.6034284 6.4989777 4.0583043
vn 0.5773497 -0.5773515 -0.5773497
v 5.6034284 4.9957509 4.0583043
vn 0.5773497 0.5773515 0.5773497
v 5.6034284 6.4989777 4.2065086
vn 0.5773504 -0.5773502 0.5773502
v 5.6034284 4.9957509 4.2065086
vn -0.5964342 0.4680601 0.6520629
v -5.4949083 3.7116504 5.6479826
vn -0.5621322 0.6718733 -0.4822798
v -5.4949083 4.2439570 4.0714865
vn -0.5773503 -0.5773503 -0.5773503
v -5.4949083 3.4879739 4.0714865
vn -0.5773503 -0.5773503 0.5773504
v -5.4949083 3.4879737 5.6479826
vn 0.5621320 0.6718732 -0.4822801
v 5.4949450 4.2439570 4.0714865
vn 0.5773504 -0.5773503 -0.5773501
v 5.4949450 3.4879739 4.0714865
vn 0.5964341 0.4680601 0.6520630
v 5.4949450 3.7116504 5.6479826
vn 0.5773503 -0.5773503 0.5773503
v 5.4949450 3.4879737 5.6479826
vn -0.5773504 0.5773501 0.5773503
v -4.0927839 3.0483811 4.2322636
vn -0.5773503 0.5773501 -0.5773503
v -4.0927839 3.0483811 4.1346049
vn -0.5773505 -0.5773500 -0.5773504
v -4.0927839 0.8025491 4.1346045
vn -0.5773503 -0.5773504 0.5773502
v -4.0927839 0.8025490 4.2322631
vn 0.5773505 0.5773503 -0.5773501
v -2.4497797 3.0483811 4.1346049
vn 0.5773504 -0.5773499 -0.5773506
v -2.4497797 0.8025491 4.1346045
vn 0.5773503 0.5773500 0.5773505
v -2.4497797 3.0483811 4.2322636
vn 0.5773504 -0.5773504 0.5773500
v -2.4497797 0.8025490 4.2322631
vn -0.5773504 0.5773501 0.5773503
v 2.4444129 3.0483811 4.2322636
vn -0.5773503 0.5773504 -0.5773502
v 2.4444129 3.0483811 4.1346049
vn -0.5773505 -0.5773500 -0.5773504
v 2.4444129 0.8025491 4.1346045
vn -0.5773502 -0.5773506 0.5773500
v 2.4444129 0.8025490 4.2322631
vn 0.5773505 0.5773503 -0.5773501
v 4.0874166 3.0483811 4.1346049
vn 0.5773503 -0.5773501 -0.5773505
v 4.0874166 0.8025491 4.1346045
vn 0.5773503 0.5773503 0.5773503
v 4.0874166 3.0483811 4.2322636
vn 0.5773504 -0.5773504 0.5773500
v 4.0874166 0.8025490 4.2322631
vn -0.5773503 0.5773503 0.5773504
v -5.5541854 0.3084355 4.2098393
vn -0.5773501 0.5773502 -0.5773506
v -5.5541854 0.3084372 -4.8788571
vn -0.5773503 -0.5773503 -0.5773503
v -5.5541854 -0.0000238 -4.8788571
vn -0.5773501 -0.5773502 0.5773506
v -5.5541854 -0.0000255 4.2098393
vn 0.5773503 0.5773504 -0.5773503
v 5.5542221 0.3084372 -4.8788571
vn 0.5773502 -0.5773501 -0.5773506
v 5.5542221 -0.0000238 -4.8788571
vn 0.5773502 0.5773501 0.5773506
v 5.5542221 0.3084355 4.2098393
vn 0.5773503 -0.5773504 0.5773503
v 5.5542221 -0.0000255 4.2098393
vn -0.5773504 0.5773503 0.5773502
v -1.1038567 3.3455822 4.2787662
vn -0.7071068 0.7071068 0.0000000
v -1.1038567 3.3455822 3.9690566
vn -1.0000000 0.0000000 0.0000000
v -1.1038567 0.0077401 3.9690561
vn -0.7067105 -0.0000001 0.7075029
v -1.1038567 0.0077400 4.2787657
vn 0.7071068 0.7071067 0.0000000
v 1.1038938 3.3455822 3.9690566
vn 1.0000000 0.0000000 0.0000000
v 1.1038938 0.0077401 3.9690561
vn 0.5773503 0.5773503 0.5773504
v 1.1038938 3.3455822 4.2787662
vn 0.7067106 -0.0000001 0.7075028
v 1.1038938 0.0077400 4.2787657
vn -0.7075035 -0.0000001 0.7067099
v 0.9308933 0.0074353 4.2787657
vn 0.7075034 -0.0000001 0.7067099
v -0.9308563 0.0074353 4.2787657
vn -1.0000000 0.0000000 0.0000000
v 0.9308933 0.0074353 4.2238708
vn 1.0000000 0.0000000 0.0000000
v -0.9308563 0.0074353 4.2238708
vn 0.3015114 -0.3015114 0.9045340
v -0.9308563 3.1756699 4.2787662
vn -0.3015113 -0.3015113 0.9045341
v 0.9308933 3.1756699 4.2787662
vn -0.7071070 -0.7071066 0.0000000
v 0.9308933 3.1756699 4.2238712
vn 0.7071070 -0.7071066 0.0000000
v -0.9308563 3.1756699 4.2238712
vn -0.3162281 -0.9486832 -0.0000001
v -5.4999814 4.4363337 4.1654921
vn -0.3015115 -0.9045339 -0.3015117
v -5.4999814 4.4363356 -4.8345075
vn -0.5773503 -0.5773501 -0.5773504
v -5.4999814 0.0022710 -4.8345084
vn -0.7071068 -0.7071068 -0.0000001
v -5.4999814 0.0022693 4.1654911
vn 0.3015115 -0.9045339 -0.3015116
v 5.5000181 4.4363356 -4.8345075
vn 0.5773503 -0.5773501 -0.5773504
v 5.5000181 0.0022710 -4.8345084
vn 0.3162279 -0.9486833 -0.0000001
v 5.5000181 4.4363337 4.1654921
vn 0.7071068 -0.7071068 -0.0000001
v 5.5000181 0.0022693 4.1654911
vn 0.5773507 -0.5773495 0.5773507
v 5.6094108 4.4363337 4.2549958
vn -0.5773509 -0.5773492 0.5773509
v -5.6093736 4.4363337 4.2549958
vn 0.6690422 0.3236746 0.6690422
v 5.6094108 5.0075231 4.2549958
vn -0.5773503 0.5773501 0.5773504
v -5.6093736 5.0075231 4.2549958
vn 0.5773501 -0.5773503 -0.5773503
v 5.6094108 4.4363356 -4.9240108
vn -0.5773506 -0.5773494 -0.5773508
v -5.6093736 4.4363356 -4.9240108
vn -0.4656427 0.7455189 -0.4768422
v 4.9661632 5.0075231 3.7287021
vn 0.3015117 0.9045340 -0.3015113
v -4.9661264 5.0075231 3.7287021
vn 0.5773503 0.5773502 -0.5773503
v 5.6094108 5.0075245 -4.9240108
vn -0.5773504 0.5773500 -0.5773506
v -5.6093736 5.0075245 -4.9240108
vn -0.5773503 0.5773503 -0.5773503
v 4.9661632 4.7075706 3.7287023
vn 0.5773506 0.5773500 -0.5773503
v -4.9661264 4.7075706 3.7287023
vn 0.0000001 0.9471571 0.3207700
v 4.9661632 5.0075245 -4.3977180
vn 0.3015116 0.9045339 0.3015114
v -4.9661264 5.0075245 -4.3977180
vn -0.0166066 0.7070092 0.7070094
v 4.9661632 4.7075725 -4.3977180
vn 0.5773504 0.5773503 0.5773501
v -4.9661264 4.7075725 -4.3977180
# 80 vertices, 0 vertices normals


usemtl material_0
vt 0.2674584 0.4534981
vt 0.2921587 0.4736364
vt 0.2905831 0.4767358
f 1/1/1 2/2/2 3/3/3
vt 0.2716736 0.4989975
f 1/1/1 3/3/3 4/4/4
vt 0.2952084 0.4763182
vt 0.2933216 0.4784579
f 2/2/2 5/5/5 6/6/6
f 2/2/2 6/6/6 3/3/3
vt 0.3174489 0.4535154
vt 0.3146035 0.4990123
f 5/5/5 7/7/7 8/8/8
f 5/5/5 8/8/8 6/6/6
vt 0.9594657 0.7259035
vt 0.0354388 0.7259035
vt 0.0354388 0.6019590
f 7/9/7 1/10/1 4/11/4
vt 0.9594657 0.6019590
f 7/9/7 4/11/4 8/12/8
f 4/4/4 3/3/3 6/6/6
f 4/4/4 6/6/6 8/8/8
f 7/7/7 5/5/5 2/2/2
f 7/7/7 2/2/2 1/1/1
vt 0.6727776 0.4263868
vt 0.6727776 0.4423427
vt 0.6727776 0.4196821
f 9/13/9 10/14/10 11/15/11
f 9/13/9 11/15/11 12/15/12
vt 0.9728765 0.4423427
vt 0.9728765 0.4196821
f 10/14/10 13/16/13 14/17/14
f 10/14/10 14/17/14 11/15/11
vt 0.9728765 0.4263868
f 13/16/13 15/18/15 16/17/16
f 13/16/13 16/17/16 14/17/14
f 15/18/15 9/13/9 12/15/12
f 15/18/15 12/15/12 16/17/16
f 12/15/12 11/15/11 14/17/14
f 12/15/12 14/17/14 16/17/16
f 15/18/15 13/16/13 10/14/10
f 15/18/15 10/14/10 9/13/9
vt 0.4991806 0.2303179
vt 0.5084795 0.2208072
vt 0.5097170 0.2215677
f 17/19/17 18/20/18 19/21/19
vt 0.5189316 0.2303179
f 17/19/17 19/21/19 20/22/20
vt 0.5094779 0.2197639
vt 0.5107154 0.2205244
f 18/20/18 21/23/21 22/24/22
f 18/20/18 22/24/22 19/21/19
vt 0.5002634 0.2110137
vt 0.5200143 0.2110137
f 21/23/21 23/25/23 24/26/24
f 21/23/21 24/26/24 22/24/22
vt 0.5690668 0.2461745
vt 0.4010279 0.2461745
vt 0.4010279 0.0164813
f 23/27/23 17/28/17 20/29/20
vt 0.5690668 0.0164813
f 23/27/23 20/29/20 24/30/24
f 20/22/20 19/21/19 22/24/22
f 20/22/20 22/24/22 24/26/24
f 23/25/23 21/23/21 18/20/18
f 23/25/23 18/20/18 17/19/17
vt 0.4991806 0.1917046
vt 0.5096619 0.2002441
vt 0.5089939 0.2015590
f 25/31/25 26/32/26 27/33/27
vt 0.5009754 0.2110056
f 25/31/25 27/33/27 28/34/28
vt 0.5109560 0.2013812
vt 0.5101559 0.2022892
f 26/32/26 29/35/29 30/36/30
f 26/32/26 30/36/30 27/33/27
vt 0.5203874 0.1917046
vt 0.5191870 0.2110056
f 29/35/29 31/37/31 32/38/32
f 29/35/29 32/38/32 30/36/30
vt 0.5675081 0.2452574
vt 0.4012949 0.2452574
vt 0.4012949 0.0180594
f 31/39/31 25/40/25 28/41/28
vt 0.5675081 0.0180594
f 31/39/31 28/41/28 32/42/32
f 28/34/28 27/33/27 30/36/30
f 28/34/28 30/36/30 32/38/32
f 31/37/31 29/35/29 26/32/26
f 31/37/31 26/32/26 25/31/25
vt 0.4085937 0.8792968
vt 0.4585937 0.8792968
vt 0.4585937 0.9292968
f 33/43/33 34/44/34 35/45/35
vt 0.4085937 0.9292968
f 33/43/33 35/45/35 36/46/36
f 34/43/34 37/44/37 38/45/38
f 34/43/34 38/45/38 35/46/35
f 37/43/37 39/44/39 40/45/40
f 37/43/37 40/45/40 38/46/38
f 39/43/39 33/44/33 36/45/36
f 39/43/39 36/45/36 40/46/40
f 36/43/36 35/44/35 38/45/38
f 36/43/36 38/45/38 40/46/40
f 39/43/39 37/44/37 34/45/34
f 39/43/39 34/45/34 33/46/33
vt 0.7007003 0.8566784
vt 0.7015594 0.8569968
vt 0.7000604 0.8560480
f 41/47/41 42/48/42 43/49/43
vt 0.6995271 0.8550121
f 41/47/41 43/49/43 44/50/44
vt 0.6997505 0.8566812
vt 0.6986996 0.8571504
vt 0.6967776 0.8550874
f 45/51/45 47/52/47 48/53/48
vt 0.6989467 0.8559833
f 45/51/45 48/53/48 46/54/46
f 47/52/47 45/51/45 42/48/42
f 47/52/47 42/48/42 41/47/41
vt 0.7006106 0.8566401
f 47/52/47 41/47/41 53/55/53
vt 0.6985614 0.8571506
f 47/52/47 53/55/53 54/56/54
f 48/53/48 47/52/47 54/56/54
vt 0.6949518 0.8544456
f 48/53/48 54/56/54 49/57/49
vt 0.6993627 0.8549713
f 41/47/41 44/50/44 50/58/50
f 41/47/41 50/58/50 53/55/53
vt 0.7008739 0.8567567
f 54/56/54 53/55/53 56/59/56
vt 0.6983027 0.8577046
f 54/56/54 56/59/56 55/60/55
f 49/57/49 54/56/54 55/60/55
vt 0.6947964 0.8543562
f 49/57/49 55/60/55 51/61/51
vt 0.6995281 0.8543562
f 53/55/53 50/58/50 52/62/52
f 53/55/53 52/62/52 56/59/56
vt 0.3323281 0.2229531
vt 0.3903281 0.2229531
vt 0.3903281 0.2809531
f 57/63/57 58/64/58 59/65/59
vt 0.3323281 0.2809531
f 57/63/57 59/65/59 60/66/60
f 58/63/58 61/64/61 62/65/62
f 58/63/58 62/65/62 59/66/59
f 61/63/61 63/64/63 64/65/64
f 61/63/61 64/65/64 62/66/62
f 60/63/60 59/64/59 62/65/62
f 60/63/60 62/65/62 64/66/64
vt 0.3870156 0.8752968
vt 0.4450156 0.8752968
vt 0.4450156 0.9332968
f 57/67/57 63/68/63 65/69/65
vt 0.3870156 0.9332968
f 57/67/57 65/69/65 66/70/66
f 66/67/66 65/68/65 67/69/67
f 66/67/66 67/69/67 68/70/68
f 63/67/63 61/68/61 69/69/69
f 63/67/63 69/69/69 65/70/65
f 61/67/61 58/68/58 70/69/70
f 61/67/61 70/69/70 69/70/69
f 58/67/58 57/68/57 66/69/66
f 58/67/58 66/69/66 70/70/70
f 68/67/68 67/68/67 71/69/71
f 68/67/68 71/69/71 72/70/72
f 65/67/65 69/68/69 73/69/73
f 65/67/65 73/69/73 67/70/67
f 69/67/69 70/68/70 74/69/74
f 69/67/69 74/69/74 73/70/73
f 70/67/70 66/68/66 68/69/68
f 70/67/70 68/69/68 74/70/74
f 72/67/72 71/68/71 75/69/75
f 72/67/72 75/69/75 76/70/76
f 67/67/67 73/68/73 77/69/77
f 73/67/73 74/68/74 78/69/78
f 73/67/73 78/69/78 77/70/77
f 74/67/74 68/68/68 72/69/72
f 74/67/74 72/69/72 78/70/78
vt 0.6194375 0.1624063
vt 0.6774374 0.1624063
vt 0.6774374 0.2204062
f 75/71/75 79/72/79 80/73/80
vt 0.6194375 0.2204062
f 75/71/75 80/73/80 76/74/76
f 71/67/71 79/69/79 75/70/75
f 77/67/77 78/68/78 80/69/80
f 77/67/77 80/69/80 79/70/79
f 78/67/78 72/68/72 76/69/76
f 78/67/78 76/69/76 80/70/80
# 118 faces, 74 coords texture

# End of File
